<?xml version="1.0" encoding="UTF-8" standalone="no"?>
<!DOCTYPE svg PUBLIC "-//W3C//DTD SVG 1.1//EN" "http://www.w3.org/Graphics/SVG/1.1/DTD/svg11.dtd">
<svg width="100%" height="100%" viewBox="0 0 623 433" version="1.1" xmlns="http://www.w3.org/2000/svg" xmlns:xlink="http://www.w3.org/1999/xlink" xml:space="preserve" xmlns:serif="http://www.serif.com/" style="fill-rule:evenodd;clip-rule:evenodd;stroke-linejoin:round;stroke-miterlimit:1.5;">
    <g transform="matrix(1,0,0,1,-228.5,-323.804)">
        <g id="full-logo" transform="matrix(1.75,0,0,1.75,-403.25,-335.946)">
            <g transform="matrix(1.21542,0,0,1.21542,-82.7628,-93.9653)">
                <g transform="matrix(96,0,0,96,664.342,557.596)">
                </g>
                <text x="365.017px" y="557.596px" style="font-family:'DINAlternate-Bold', 'DIN Alternate', sans-serif;font-weight:700;font-size:96px;fill:white;">T<tspan x="398.608px 441.808px 474.367px 551.364px 569.58px 616.342px " y="557.596px 557.596px 557.596px 557.596px 557.596px 557.596px ">ermina</tspan></text>
            </g>
            <g transform="matrix(1.67136,0,0,1.67136,8.76846,103.867)">
                <g transform="matrix(24,0,0,24,424.489,310.916)">
                </g>
                <text x="221.185px" y="310.916px" style="font-family:'HelveticaNeue-Light', 'Helvetica Neue';font-weight:300;font-size:24px;fill:white;">T<tspan x="235.945px 252.481px 269.017px 285.985px 296.737px 315.937px 333.361px 341.881px 358.849px 370.033px 378.553px 395.977px 412.945px " y="310.916px 310.916px 310.916px 310.916px 310.916px 310.916px 310.916px 310.916px 310.916px 310.916px 310.916px 310.916px 310.916px ">ech Solutions</tspan></text>
            </g>
            <g id="shield" transform="matrix(0.192926,0,0,0.192926,458.638,314.205)">
                <path d="M443.583,325.487C443.583,325.487 561.276,394.267 717.36,426C717.36,426 723.166,570 666.166,700C628.732,785.377 550.583,861 443.583,928.939C336.583,861 258.434,785.377 221,700C164,570 169.806,426 169.806,426C325.89,394.267 443.583,325.487 443.583,325.487Z" style="fill:url(#_Linear1);"/>
            </g>
            <g id="Diamond" transform="matrix(1.2183,0,0,1.2183,475.68,-292.531)">
                <path d="M83.819,651.08C81.653,634.107 68,618.458 68,618.458C78.593,605.852 83.819,590.689 83.819,590.689C83.819,590.689 89.044,605.852 99.637,618.458C99.637,618.458 85.984,634.107 83.819,651.08Z" style="fill:white;stroke:rgb(24,24,24);stroke-width:1.95px;"/>
            </g>
            <g id="Diamond1" serif:id="Diamond" transform="matrix(0.510636,0,0,0.510636,507.646,110.742)">
                <path d="M83.819,651.08C81.653,634.107 68,618.458 68,618.458C78.593,605.852 83.819,590.689 83.819,590.689C83.819,590.689 89.044,605.852 99.637,618.458C99.637,618.458 85.984,634.107 83.819,651.08Z" style="fill:white;stroke:rgb(24,24,24);stroke-width:3.5px;"/>
            </g>
        </g>
    </g>
    <defs>
        <linearGradient id="_Linear1" x1="0" y1="0" x2="1" y2="0" gradientUnits="userSpaceOnUse" gradientTransform="matrix(508.114,353.394,-353.394,508.114,169.64,423.222)"><stop offset="0" style="stop-color:rgb(197,117,242);stop-opacity:1"/><stop offset="1" style="stop-color:rgb(147,0,241);stop-opacity:1"/></linearGradient>
    </defs>
</svg>
