<?xml version="1.0" encoding="UTF-8" standalone="no"?><!DOCTYPE svg PUBLIC "-//W3C//DTD SVG 1.1//EN" "http://www.w3.org/Graphics/SVG/1.1/DTD/svg11.dtd"><svg width="100%" height="100%" viewBox="0 0 1806 494" version="1.1" xmlns="http://www.w3.org/2000/svg" xmlns:xlink="http://www.w3.org/1999/xlink" xml:space="preserve" xmlns:serif="http://www.serif.com/" style="fill-rule:evenodd;clip-rule:evenodd;stroke-linejoin:round;stroke-miterlimit:1.5;"><g id="full-logo"><g><path d="M590.103,326.791l46.112,0l-0,-261.926l82.878,-0l-0,-40.92l-211.868,0l0,40.92l82.878,-0l-0,261.926Z" style="fill:#fff;fill-rule:nonzero;"/><path d="M850.907,235.397l0,-35.726c-0.277,-28.388 -9.07,-50.682 -26.379,-66.884c-17.033,-15.925 -37.873,-24.026 -62.522,-24.302c-10.247,-0 -20.633,1.869 -31.157,5.608c-10.662,3.739 -20.287,9.832 -28.872,18.279c-8.447,8.308 -15.371,19.663 -20.771,34.065c-5.401,14.124 -8.101,31.849 -8.101,53.174c-0,22.156 3.116,40.158 9.347,54.006c5.677,14.401 13.086,25.617 22.225,33.649c4.708,3.877 9.763,7.132 15.163,9.763c5.124,3.046 10.386,5.469 15.787,7.27c10.801,3.323 21.879,4.985 33.234,4.985c29.772,0.277 55.667,-11.355 77.684,-34.896l-31.364,-26.795c-13.848,13.986 -29.565,20.979 -47.151,20.979c-15.094,-0 -27.28,-4.57 -36.558,-13.709c-9.97,-9.001 -14.955,-22.156 -14.955,-39.466l134.39,0Zm-134.39,-35.726c0.831,-16.756 5.331,-29.426 13.501,-38.012c8.309,-8.17 18.971,-12.255 31.988,-12.255c13.017,0 23.679,4.085 31.988,12.255c8.447,8.586 12.947,21.256 13.501,38.012l-90.978,-0Z" style="fill:#fff;fill-rule:nonzero;"/><path d="M875.127,326.791l43.412,0l-0,-129.821c0.277,-15.786 4.846,-27.21 13.709,-34.272c7.893,-7.201 17.379,-10.801 28.457,-10.801c9.831,-0 19.317,3.6 28.456,10.801l31.573,-37.596c-12.879,-10.802 -27.972,-16.341 -45.282,-16.617c-23.125,-0 -41.819,8.516 -56.082,25.548l-0.831,0l-0,-22.848l-43.412,-0l-0,215.606Z" style="fill:#fff;fill-rule:nonzero;"/><path d="M1021.9,326.791l43.412,0l-0,-128.367c-0,-15.093 4.154,-26.587 12.463,-34.48c7.893,-8.032 18.071,-12.047 30.534,-12.047c12.462,-0 22.71,4.015 30.741,12.047c7.893,7.893 11.84,19.387 11.84,34.48l-0,128.367l43.412,0l-0,-128.367c-0,-15.093 4.085,-26.587 12.255,-34.48c8.031,-8.032 18.279,-12.047 30.741,-12.047c12.463,-0 22.641,4.015 30.534,12.047c7.893,7.893 11.84,19.387 11.84,34.48l-0,128.367l43.412,0l-0,-143.322c-0.554,-24.649 -8.17,-43.343 -22.848,-56.083c-14.817,-12.601 -31.157,-18.901 -49.021,-18.901c-28.387,-0.277 -51.028,9.139 -67.922,28.249c-7.478,-8.309 -15.717,-15.164 -24.718,-20.564c-9.139,-4.847 -21.187,-7.409 -36.142,-7.685c-23.264,-0 -42.027,8.516 -56.29,25.548l-0.831,0l-0,-22.848l-43.412,-0l-0,215.606Z" style="fill:#fff;fill-rule:nonzero;"/><path d="M1361.84,326.791l43.412,0l0,-215.606l-43.412,-0l0,215.606Zm0,-259.434l43.412,0l0,-43.412l-43.412,0l0,43.412Z" style="fill:#fff;fill-rule:nonzero;"/><path d="M1441.31,326.791l43.412,0l0,-128.367c0,-15.093 4.085,-26.587 12.255,-34.48c8.032,-8.032 18.279,-12.047 30.742,-12.047c12.463,-0 22.641,4.015 30.534,12.047c8.031,7.893 12.047,19.387 12.047,34.48l0,128.367l43.412,0l0,-143.322c-0.692,-24.649 -8.377,-43.343 -23.056,-56.083c-14.817,-12.601 -31.157,-18.901 -49.02,-18.901c-23.126,-0 -41.82,8.516 -56.083,25.548l-0.831,0l0,-22.848l-43.412,-0l0,215.606Z" style="fill:#fff;fill-rule:nonzero;"/><path d="M1761.73,326.791l43.412,0l-0,-147.269c-0.277,-26.31 -8.516,-44.866 -24.718,-55.667c-16.202,-10.524 -37.873,-15.647 -65.014,-15.37c-32.127,-0.554 -56.429,9.97 -72.908,31.572l34.065,25.964c3.739,-6.231 8.863,-10.663 15.371,-13.294c6.231,-2.215 14.748,-3.323 25.549,-3.323c29.772,-0.554 44.52,8.655 44.243,27.626l-0,22.641l-60.029,-0c-22.987,0.277 -40.435,6.508 -52.344,18.694c-11.909,11.909 -17.863,26.933 -17.863,45.074c-0,18.971 6.854,34.549 20.563,46.735c13.017,12.463 31.573,18.833 55.667,19.11c14.679,-0 26.172,-1.801 34.481,-5.401c8.447,-3.462 14.678,-8.862 18.694,-16.202l0.831,0l-0,19.11Zm-0,-75.815c-0,16.201 -3.393,26.587 -10.178,31.157c-7.478,4.569 -20.287,6.716 -38.427,6.439c-14.402,-0 -24.718,-2.839 -30.949,-8.516c-6.509,-5.124 -9.763,-11.355 -9.763,-18.695c-0.277,-16.755 12.186,-25.41 37.388,-25.964l51.929,0l-0,15.579Z" style="fill:#fff;fill-rule:nonzero;"/></g><g><path d="M570.256,367.375l0,8.482l36.269,0l-0,95.937l9.944,-0l0,-95.937l36.415,0l0,-8.482l-82.628,0Z" style="fill:#fff;fill-rule:nonzero;"/><path d="M723.813,428.798l-48.846,-0c0.39,-3.413 1.194,-6.752 2.413,-10.018c1.219,-3.266 2.852,-6.142 4.899,-8.628c2.048,-2.487 4.534,-4.485 7.459,-5.996c2.925,-1.512 6.288,-2.267 10.091,-2.267c3.704,-0 7.019,0.755 9.944,2.267c2.925,1.511 5.411,3.509 7.459,5.996c2.047,2.486 3.631,5.338 4.753,8.555c1.121,3.217 1.73,6.581 1.828,10.091Zm-48.846,7.751l58.059,-0c0.195,-5.265 -0.292,-10.457 -1.462,-15.575c-1.17,-5.119 -3.096,-9.652 -5.777,-13.601c-2.681,-3.949 -6.167,-7.142 -10.457,-9.579c-4.289,-2.437 -9.457,-3.656 -15.501,-3.656c-5.948,-0 -11.091,1.145 -15.429,3.437c-4.339,2.291 -7.873,5.313 -10.603,9.067c-2.73,3.753 -4.753,8.019 -6.069,12.796c-1.316,4.777 -1.974,9.652 -1.974,14.625c-0,5.362 0.658,10.456 1.974,15.282c1.316,4.826 3.339,9.067 6.069,12.723c2.73,3.656 6.264,6.533 10.603,8.629c4.338,2.096 9.481,3.144 15.429,3.144c9.554,-0 16.94,-2.34 22.156,-7.02c5.216,-4.68 8.799,-11.309 10.749,-19.889l-9.214,0c-1.462,5.85 -4.095,10.53 -7.897,14.039c-3.802,3.51 -9.067,5.265 -15.794,5.265c-4.388,0 -8.141,-0.926 -11.261,-2.778c-3.12,-1.853 -5.704,-4.193 -7.751,-7.02c-2.048,-2.827 -3.534,-6.02 -4.461,-9.579c-0.926,-3.559 -1.389,-6.995 -1.389,-10.31Z" style="fill:#fff;fill-rule:nonzero;"/><path d="M823.551,420.023l9.214,0c-1.073,-8.677 -4.412,-15.161 -10.018,-19.45c-5.606,-4.29 -12.455,-6.435 -20.547,-6.435c-5.753,-0 -10.847,1.072 -15.283,3.217c-4.436,2.145 -8.165,5.021 -11.188,8.629c-3.022,3.607 -5.313,7.824 -6.873,12.65c-1.56,4.826 -2.34,9.969 -2.34,15.429c-0,5.459 0.78,10.602 2.34,15.428c1.56,4.826 3.851,9.043 6.873,12.65c3.023,3.608 6.752,6.46 11.188,8.556c4.436,2.096 9.53,3.144 15.283,3.144c8.579,-0 15.599,-2.559 21.059,-7.678c5.459,-5.118 8.823,-12.26 10.091,-21.425l-9.214,0c-0.292,3.12 -1.072,5.996 -2.34,8.629c-1.267,2.632 -2.876,4.899 -4.826,6.8c-1.95,1.901 -4.192,3.388 -6.727,4.461c-2.535,1.072 -5.216,1.608 -8.043,1.608c-4.388,0 -8.239,-0.926 -11.554,-2.778c-3.315,-1.853 -6.069,-4.29 -8.263,-7.313c-2.193,-3.022 -3.851,-6.459 -4.972,-10.31c-1.121,-3.851 -1.682,-7.775 -1.682,-11.772c0,-3.998 0.561,-7.922 1.682,-11.773c1.121,-3.851 2.779,-7.288 4.972,-10.31c2.194,-3.023 4.948,-5.46 8.263,-7.313c3.315,-1.852 7.166,-2.778 11.554,-2.778c6.142,-0 10.919,1.609 14.331,4.826c3.413,3.217 5.753,7.653 7.02,13.308Z" style="fill:#fff;fill-rule:nonzero;"/><path d="M870.934,367.375l0,104.419l9.214,-0l-0,-44.02c0.097,-3.705 0.706,-7.142 1.828,-10.31c1.121,-3.169 2.681,-5.899 4.679,-8.19c1.999,-2.291 4.437,-4.095 7.313,-5.411c2.876,-1.316 6.166,-1.974 9.871,-1.974c3.705,-0 6.801,0.585 9.287,1.755c2.486,1.17 4.46,2.778 5.923,4.826c1.462,2.047 2.486,4.46 3.071,7.239c0.585,2.779 0.877,5.777 0.877,8.994l0,47.091l9.214,-0l-0,-48.554c-0,-4.484 -0.439,-8.53 -1.317,-12.138c-0.877,-3.607 -2.388,-6.654 -4.533,-9.14c-2.145,-2.486 -4.997,-4.412 -8.556,-5.777c-3.558,-1.365 -7.97,-2.047 -13.235,-2.047c-5.362,-0 -10.285,1.389 -14.77,4.168c-4.485,2.778 -7.605,6.459 -9.36,11.041l-0.292,0l-0,-41.972l-9.214,0Z" style="fill:#fff;fill-rule:nonzero;"/><path d="M1046.43,437.426l-9.944,0c-0.293,6.435 0.56,11.943 2.559,16.526c1.999,4.582 4.85,8.336 8.555,11.261c3.705,2.924 8.19,5.094 13.455,6.507c5.264,1.414 10.968,2.121 17.11,2.121c6.142,-0 11.407,-0.561 15.795,-1.682c4.387,-1.121 8.067,-2.584 11.041,-4.387c2.974,-1.804 5.314,-3.827 7.02,-6.069c1.706,-2.243 3.022,-4.461 3.948,-6.654c0.927,-2.194 1.511,-4.266 1.755,-6.216c0.244,-1.95 0.366,-3.51 0.366,-4.68c-0,-4.289 -0.707,-7.946 -2.121,-10.968c-1.413,-3.022 -3.363,-5.582 -5.849,-7.678c-2.487,-2.096 -5.363,-3.851 -8.629,-5.265c-3.266,-1.413 -6.751,-2.608 -10.456,-3.583l-25.447,-6.288c-2.145,-0.487 -4.168,-1.121 -6.069,-1.901c-1.901,-0.78 -3.583,-1.804 -5.045,-3.071c-1.463,-1.268 -2.608,-2.803 -3.437,-4.607c-0.829,-1.804 -1.243,-3.924 -1.243,-6.362c-0,-3.899 0.731,-7.166 2.193,-9.798c1.463,-2.632 3.388,-4.753 5.777,-6.362c2.389,-1.608 5.167,-2.778 8.336,-3.509c3.169,-0.732 6.459,-1.097 9.872,-1.097c3.704,-0 7.239,0.512 10.602,1.535c3.364,1.024 6.337,2.535 8.921,4.534c2.584,1.999 4.68,4.485 6.289,7.458c1.608,2.974 2.51,6.459 2.705,10.457l9.945,-0c-0,-5.363 -1.048,-10.067 -3.145,-14.113c-2.096,-4.046 -4.899,-7.434 -8.409,-10.164c-3.509,-2.73 -7.604,-4.777 -12.284,-6.142c-4.68,-1.365 -9.603,-2.047 -14.771,-2.047c-7.312,-0 -13.308,1.048 -17.988,3.144c-4.68,2.096 -8.36,4.655 -11.041,7.678c-2.681,3.022 -4.509,6.239 -5.484,9.652c-0.975,3.412 -1.463,6.386 -1.463,8.921c0,4.094 0.658,7.556 1.975,10.383c1.316,2.827 3.046,5.216 5.191,7.166c2.145,1.95 4.656,3.51 7.532,4.68c2.876,1.17 5.825,2.145 8.848,2.925l23.252,5.703c2.438,0.585 4.924,1.341 7.459,2.267c2.535,0.926 4.85,2.12 6.946,3.583c2.097,1.462 3.803,3.266 5.119,5.411c1.316,2.145 1.974,4.68 1.974,7.605c0,3.802 -0.926,7.044 -2.778,9.725c-1.853,2.681 -4.168,4.875 -6.947,6.581c-2.779,1.706 -5.777,2.949 -8.994,3.729c-3.217,0.78 -6.191,1.17 -8.921,1.17c-4.777,0 -9.262,-0.463 -13.454,-1.389c-4.193,-0.926 -7.824,-2.462 -10.896,-4.607c-3.071,-2.145 -5.484,-5.021 -7.239,-8.628c-1.755,-3.608 -2.583,-8.093 -2.486,-13.455Z" style="fill:#fff;fill-rule:nonzero;"/><path d="M1188.87,401.889c4.387,-0 8.238,0.926 11.553,2.778c3.315,1.853 6.069,4.29 8.263,7.313c2.194,3.022 3.851,6.459 4.972,10.31c1.122,3.851 1.682,7.775 1.682,11.773c0,3.997 -0.56,7.921 -1.682,11.772c-1.121,3.851 -2.778,7.288 -4.972,10.31c-2.194,3.023 -4.948,5.46 -8.263,7.313c-3.315,1.852 -7.166,2.778 -11.553,2.778c-4.387,0 -8.238,-0.926 -11.553,-2.778c-3.315,-1.853 -6.069,-4.29 -8.263,-7.313c-2.194,-3.022 -3.851,-6.459 -4.972,-10.31c-1.122,-3.851 -1.682,-7.775 -1.682,-11.772c-0,-3.998 0.56,-7.922 1.682,-11.773c1.121,-3.851 2.778,-7.288 4.972,-10.31c2.194,-3.023 4.948,-5.46 8.263,-7.313c3.315,-1.852 7.166,-2.778 11.553,-2.778Zm-0,-7.751c-5.752,-0 -10.846,1.072 -15.283,3.217c-4.436,2.145 -8.165,5.021 -11.187,8.629c-3.023,3.607 -5.314,7.824 -6.874,12.65c-1.56,4.826 -2.34,9.969 -2.34,15.429c0,5.459 0.78,10.602 2.34,15.428c1.56,4.826 3.851,9.043 6.874,12.65c3.022,3.608 6.751,6.46 11.187,8.556c4.437,2.096 9.531,3.144 15.283,3.144c5.752,-0 10.846,-1.048 15.283,-3.144c4.436,-2.096 8.165,-4.948 11.187,-8.556c3.023,-3.607 5.314,-7.824 6.874,-12.65c1.56,-4.826 2.34,-9.969 2.34,-15.428c-0,-5.46 -0.78,-10.603 -2.34,-15.429c-1.56,-4.826 -3.851,-9.043 -6.874,-12.65c-3.022,-3.608 -6.751,-6.484 -11.187,-8.629c-4.437,-2.145 -9.531,-3.217 -15.283,-3.217Z" style="fill:#fff;fill-rule:nonzero;"/><rect x="1263.31" y="367.375" width="9.213" height="104.418" style="fill:#fff;fill-rule:nonzero;"/><path d="M1376.21,471.794l-0,-75.462l-9.214,-0l0,39.632c0,3.802 -0.438,7.531 -1.316,11.187c-0.877,3.656 -2.242,6.898 -4.095,9.726c-1.852,2.827 -4.192,5.094 -7.019,6.8c-2.828,1.706 -6.24,2.559 -10.237,2.559c-7.313,0 -12.456,-1.755 -15.429,-5.265c-2.974,-3.509 -4.558,-8.677 -4.753,-15.501l-0,-49.138l-9.214,-0l0,48.991c0,4.485 0.488,8.483 1.463,11.992c0.975,3.51 2.51,6.484 4.607,8.921c2.096,2.438 4.826,4.314 8.189,5.631c3.364,1.316 7.434,1.974 12.212,1.974c5.654,-0 10.797,-1.341 15.428,-4.022c4.631,-2.681 8.166,-6.556 10.603,-11.626l0.293,-0l-0,13.601l8.482,-0Z" style="fill:#fff;fill-rule:nonzero;"/><path d="M1433.1,396.332l-0,-22.668l-9.214,-0l0,22.668l-13.162,-0l0,7.75l13.162,0l0,51.625c-0.097,6.434 1.073,10.846 3.51,13.235c2.438,2.388 6.727,3.583 12.87,3.583c1.365,-0 2.73,-0.049 4.094,-0.146c1.365,-0.098 2.73,-0.147 4.095,-0.147l0,-7.751c-2.632,0.293 -5.264,0.439 -7.897,0.439c-3.315,-0.195 -5.387,-1.146 -6.215,-2.852c-0.829,-1.706 -1.243,-4.07 -1.243,-7.093l-0,-50.893l15.355,0l0,-7.75l-15.355,-0Z" style="fill:#fff;fill-rule:nonzero;"/><path d="M1486.77,367.375l0,14.771l9.214,-0l-0,-14.771l-9.214,0Zm0,28.957l0,75.462l9.214,-0l-0,-75.462l-9.214,-0Z" style="fill:#fff;fill-rule:nonzero;"/><path d="M1570.42,401.889c4.387,-0 8.238,0.926 11.553,2.778c3.315,1.853 6.069,4.29 8.263,7.313c2.194,3.022 3.851,6.459 4.972,10.31c1.122,3.851 1.682,7.775 1.682,11.773c0,3.997 -0.56,7.921 -1.682,11.772c-1.121,3.851 -2.778,7.288 -4.972,10.31c-2.194,3.023 -4.948,5.46 -8.263,7.313c-3.315,1.852 -7.166,2.778 -11.553,2.778c-4.387,0 -8.238,-0.926 -11.553,-2.778c-3.315,-1.853 -6.069,-4.29 -8.263,-7.313c-2.194,-3.022 -3.851,-6.459 -4.972,-10.31c-1.122,-3.851 -1.682,-7.775 -1.682,-11.772c-0,-3.998 0.56,-7.922 1.682,-11.773c1.121,-3.851 2.778,-7.288 4.972,-10.31c2.194,-3.023 4.948,-5.46 8.263,-7.313c3.315,-1.852 7.166,-2.778 11.553,-2.778Zm-0,-7.751c-5.752,-0 -10.847,1.072 -15.283,3.217c-4.436,2.145 -8.165,5.021 -11.187,8.629c-3.023,3.607 -5.314,7.824 -6.874,12.65c-1.56,4.826 -2.34,9.969 -2.34,15.429c0,5.459 0.78,10.602 2.34,15.428c1.56,4.826 3.851,9.043 6.874,12.65c3.022,3.608 6.751,6.46 11.187,8.556c4.436,2.096 9.531,3.144 15.283,3.144c5.752,-0 10.846,-1.048 15.282,-3.144c4.437,-2.096 8.166,-4.948 11.188,-8.556c3.022,-3.607 5.314,-7.824 6.874,-12.65c1.56,-4.826 2.339,-9.969 2.339,-15.428c0,-5.46 -0.779,-10.603 -2.339,-15.429c-1.56,-4.826 -3.852,-9.043 -6.874,-12.65c-3.022,-3.608 -6.751,-6.484 -11.188,-8.629c-4.436,-2.145 -9.53,-3.217 -15.282,-3.217Z" style="fill:#fff;fill-rule:nonzero;"/><path d="M1644.57,396.332l-0,75.462l9.213,-0l0,-44.02c0.098,-3.705 0.707,-7.142 1.828,-10.31c1.121,-3.169 2.681,-5.899 4.68,-8.19c1.999,-2.291 4.436,-4.095 7.312,-5.411c2.876,-1.316 6.167,-1.974 9.872,-1.974c3.704,-0 6.8,0.585 9.286,1.755c2.486,1.17 4.461,2.778 5.923,4.826c1.462,2.047 2.486,4.46 3.071,7.239c0.585,2.779 0.878,5.777 0.878,8.994l-0,47.091l9.213,-0l-0,-48.554c-0,-4.484 -0.439,-8.53 -1.316,-12.138c-0.878,-3.607 -2.389,-6.654 -4.534,-9.14c-2.145,-2.486 -4.996,-4.412 -8.555,-5.777c-3.559,-1.365 -7.97,-2.047 -13.235,-2.047c-5.362,-0 -10.286,1.389 -14.771,4.168c-4.485,2.778 -7.604,6.459 -9.359,11.041l-0.293,0l0,-13.015l-9.213,-0Z" style="fill:#fff;fill-rule:nonzero;"/><path d="M1793.3,418.414l9.213,0c-0.195,-4.094 -1.023,-7.653 -2.486,-10.675c-1.462,-3.023 -3.437,-5.558 -5.923,-7.605c-2.486,-2.048 -5.362,-3.559 -8.628,-4.534c-3.266,-0.975 -6.8,-1.462 -10.603,-1.462c-3.315,-0 -6.654,0.39 -10.017,1.17c-3.364,0.78 -6.411,1.999 -9.141,3.656c-2.73,1.657 -4.948,3.851 -6.654,6.581c-1.706,2.73 -2.559,5.996 -2.559,9.798c-0,3.218 0.536,5.923 1.609,8.117c1.072,2.194 2.559,4.046 4.46,5.557c1.901,1.511 4.119,2.779 6.654,3.802c2.535,1.024 5.314,1.926 8.336,2.706l11.846,2.632c2.047,0.488 4.07,1.073 6.069,1.755c1.999,0.683 3.778,1.536 5.338,2.56c1.56,1.023 2.803,2.291 3.729,3.802c0.926,1.511 1.389,3.388 1.389,5.63c0,2.633 -0.658,4.851 -1.974,6.654c-1.316,1.804 -2.998,3.291 -5.045,4.461c-2.048,1.17 -4.266,1.999 -6.654,2.486c-2.389,0.488 -4.705,0.731 -6.947,0.731c-6.142,0 -11.285,-1.584 -15.429,-4.753c-4.143,-3.168 -6.41,-7.872 -6.8,-14.112l-9.214,-0c0.78,9.262 3.925,15.989 9.433,20.181c5.509,4.193 12.699,6.289 21.571,6.289c3.51,-0 7.069,-0.39 10.676,-1.17c3.607,-0.78 6.849,-2.072 9.725,-3.875c2.876,-1.804 5.241,-4.144 7.093,-7.02c1.853,-2.876 2.779,-6.362 2.779,-10.457c-0,-3.315 -0.634,-6.191 -1.901,-8.628c-1.268,-2.437 -2.901,-4.485 -4.9,-6.142c-1.998,-1.658 -4.289,-2.998 -6.873,-4.022c-2.584,-1.024 -5.192,-1.731 -7.824,-2.121l-12.285,-2.778c-1.56,-0.39 -3.266,-0.902 -5.118,-1.536c-1.853,-0.633 -3.559,-1.438 -5.119,-2.413c-1.56,-0.975 -2.851,-2.169 -3.875,-3.583c-1.024,-1.413 -1.536,-3.144 -1.536,-5.191c0,-2.438 0.536,-4.485 1.609,-6.143c1.072,-1.657 2.486,-2.998 4.241,-4.021c1.755,-1.024 3.68,-1.755 5.777,-2.194c2.096,-0.439 4.168,-0.658 6.215,-0.658c2.632,-0 5.119,0.317 7.458,0.95c2.34,0.634 4.412,1.633 6.216,2.998c1.804,1.365 3.242,3.096 4.314,5.192c1.073,2.096 1.657,4.558 1.755,7.385Z" style="fill:#fff;fill-rule:nonzero;"/></g><path id="shield" d="M207.964,0c0,0 89.347,52.215 207.838,76.305c-0,-0 4.407,109.317 -38.864,208.007c-28.418,64.813 -87.745,122.223 -168.974,173.799c-81.229,-51.576 -140.556,-108.986 -168.974,-173.799c-43.271,-98.69 -38.864,-208.007 -38.864,-208.007c118.492,-24.09 207.838,-76.305 207.838,-76.305Z" style="fill:url(#_Linear1);"/><path id="Diamond" d="M340.095,486.675c-10.382,-81.37 -75.834,-156.386 -75.834,-156.386c50.784,-60.435 75.834,-133.127 75.834,-133.127c-0,-0 25.049,72.692 75.833,133.127c0,-0 -65.452,75.016 -75.833,156.386Z" style="fill:#fff;stroke:#181818;stroke-width:14.58px;"/><path id="Diamond1" serif:id="Diamond" d="M232.476,260.519c-4.351,-34.105 -31.784,-65.548 -31.784,-65.548c21.285,-25.33 31.784,-55.798 31.784,-55.798c0,-0 10.5,30.468 31.785,55.798c0,0 -27.433,31.443 -31.785,65.548Z" style="fill:#fff;stroke:#181818;stroke-width:12.5px;"/></g><defs><linearGradient id="_Linear1" x1="0" y1="0" x2="1" y2="0" gradientUnits="userSpaceOnUse" gradientTransform="matrix(385.735,268.279,-268.279,385.735,-5.68434e-14,74.196)"><stop offset="0" style="stop-color:#c575f2;stop-opacity:1"/><stop offset="1" style="stop-color:#9300f1;stop-opacity:1"/></linearGradient></defs></svg>