<?xml version="1.0" encoding="UTF-8" standalone="no"?><!DOCTYPE svg PUBLIC "-//W3C//DTD SVG 1.1//EN" "http://www.w3.org/Graphics/SVG/1.1/DTD/svg11.dtd"><svg width="100%" height="100%" viewBox="0 0 1298 901" version="1.1" xmlns="http://www.w3.org/2000/svg" xmlns:xlink="http://www.w3.org/1999/xlink" xml:space="preserve" xmlns:serif="http://www.serif.com/" style="fill-rule:evenodd;clip-rule:evenodd;stroke-linejoin:round;stroke-miterlimit:1.5;"><g><g><path d="M82.878,753.765l46.112,0l-0,-261.926l82.877,-0l0,-40.92l-211.867,0l0,40.92l82.878,-0l-0,261.926Z" style="fill:#fff;fill-rule:nonzero;"/><path d="M343.682,662.371l0,-35.726c-0.277,-28.388 -9.07,-50.682 -26.379,-66.884c-17.033,-15.925 -37.873,-24.025 -62.522,-24.302c-10.247,-0 -20.633,1.869 -31.157,5.608c-10.663,3.739 -20.287,9.832 -28.872,18.279c-8.447,8.308 -15.371,19.663 -20.771,34.065c-5.401,14.124 -8.101,31.849 -8.101,53.174c-0,22.156 3.115,40.158 9.347,54.006c5.677,14.401 13.086,25.618 22.225,33.649c4.708,3.878 9.763,7.132 15.163,9.763c5.124,3.046 10.386,5.47 15.786,7.27c10.802,3.323 21.88,4.985 33.235,4.985c29.772,0.277 55.667,-11.355 77.684,-34.896l-31.364,-26.795c-13.848,13.986 -29.565,20.979 -47.151,20.979c-15.094,0 -27.28,-4.57 -36.558,-13.709c-9.97,-9.001 -14.955,-22.156 -14.955,-39.466l134.39,0Zm-134.39,-35.726c0.831,-16.756 5.331,-29.426 13.501,-38.012c8.309,-8.17 18.971,-12.255 31.988,-12.255c13.017,0 23.679,4.085 31.988,12.255c8.447,8.586 12.947,21.256 13.501,38.012l-90.978,-0Z" style="fill:#fff;fill-rule:nonzero;"/><path d="M367.902,753.765l43.412,0l-0,-129.821c0.277,-15.786 4.846,-27.21 13.709,-34.272c7.893,-7.201 17.378,-10.801 28.456,-10.801c9.832,-0 19.318,3.6 28.457,10.801l31.573,-37.596c-12.879,-10.801 -27.972,-16.34 -45.282,-16.617c-23.125,-0 -41.82,8.516 -56.082,25.548l-0.831,0l-0,-22.848l-43.412,-0l-0,215.606Z" style="fill:#fff;fill-rule:nonzero;"/><path d="M514.672,753.765l43.412,0l-0,-128.367c-0,-15.093 4.154,-26.587 12.463,-34.48c7.893,-8.031 18.071,-12.047 30.533,-12.047c12.463,-0 22.71,4.016 30.742,12.047c7.893,7.893 11.84,19.387 11.84,34.48l-0,128.367l43.412,0l-0,-128.367c-0,-15.093 4.085,-26.587 12.255,-34.48c8.031,-8.031 18.279,-12.047 30.741,-12.047c12.463,-0 22.641,4.016 30.534,12.047c7.893,7.893 11.84,19.387 11.84,34.48l-0,128.367l43.412,0l-0,-143.322c-0.554,-24.648 -8.17,-43.343 -22.849,-56.082c-14.816,-12.602 -31.157,-18.902 -49.02,-18.902c-28.387,-0.277 -51.028,9.139 -67.922,28.249c-7.478,-8.309 -15.717,-15.163 -24.718,-20.564c-9.139,-4.847 -21.187,-7.408 -36.142,-7.685c-23.264,-0 -42.027,8.516 -56.29,25.548l-0.831,0l-0,-22.848l-43.412,-0l-0,215.606Z" style="fill:#fff;fill-rule:nonzero;"/><path d="M854.615,753.765l43.412,0l0,-215.606l-43.412,-0l0,215.606Zm0,-259.434l43.412,0l0,-43.412l-43.412,0l0,43.412Z" style="fill:#fff;fill-rule:nonzero;"/><path d="M934.086,753.765l43.412,0l0,-128.367c0,-15.093 4.085,-26.587 12.255,-34.48c8.032,-8.031 18.279,-12.047 30.742,-12.047c12.463,-0 22.641,4.016 30.534,12.047c8.031,7.893 12.047,19.387 12.047,34.48l0,128.367l43.412,0l0,-143.322c-0.692,-24.648 -8.378,-43.343 -23.056,-56.082c-14.817,-12.602 -31.157,-18.902 -49.02,-18.902c-23.126,-0 -41.82,8.516 -56.083,25.548l-0.831,0l0,-22.848l-43.412,-0l0,215.606Z" style="fill:#fff;fill-rule:nonzero;"/><path d="M1254.51,753.765l43.412,0l-0,-147.268c-0.277,-26.311 -8.517,-44.866 -24.718,-55.668c-16.202,-10.524 -37.873,-15.647 -65.014,-15.37c-32.127,-0.554 -56.429,9.97 -72.908,31.572l34.065,25.964c3.739,-6.231 8.863,-10.662 15.371,-13.293c6.231,-2.216 14.748,-3.324 25.549,-3.324c29.772,-0.554 44.52,8.655 44.243,27.626l-0,22.641l-60.03,-0c-22.986,0.277 -40.434,6.508 -52.343,18.694c-11.909,11.909 -17.864,26.933 -17.864,45.074c0,18.971 6.855,34.549 20.564,46.735c13.017,12.463 31.572,18.833 55.667,19.11c14.679,-0 26.172,-1.8 34.481,-5.401c8.447,-3.462 14.678,-8.862 18.694,-16.201l0.831,-0l-0,19.109Zm-0,-75.815c-0,16.202 -3.393,26.587 -10.178,31.157c-7.478,4.57 -20.287,6.716 -38.427,6.439c-14.402,0 -24.718,-2.839 -30.95,-8.516c-6.508,-5.124 -9.762,-11.355 -9.762,-18.694c-0.277,-16.756 12.186,-25.411 37.388,-25.965l51.929,0l-0,15.579Z" style="fill:#fff;fill-rule:nonzero;"/></g><g><path d="M63.031,794.349l0,8.483l36.269,-0l-0,95.936l9.944,-0l0,-95.936l36.415,-0l0,-8.483l-82.628,0Z" style="fill:#fff;fill-rule:nonzero;"/><path d="M216.588,855.772l-48.846,-0c0.39,-3.412 1.194,-6.752 2.413,-10.018c1.219,-3.266 2.852,-6.142 4.899,-8.628c2.048,-2.486 4.534,-4.485 7.459,-5.996c2.925,-1.511 6.288,-2.267 10.091,-2.267c3.704,-0 7.019,0.756 9.944,2.267c2.925,1.511 5.411,3.51 7.459,5.996c2.047,2.486 3.631,5.338 4.753,8.555c1.121,3.217 1.73,6.581 1.828,10.091Zm-48.846,7.751l58.059,-0c0.195,-5.265 -0.293,-10.457 -1.463,-15.575c-1.169,-5.119 -3.095,-9.652 -5.776,-13.601c-2.681,-3.948 -6.167,-7.141 -10.457,-9.579c-4.289,-2.437 -9.457,-3.656 -15.501,-3.656c-5.948,0 -11.091,1.146 -15.429,3.437c-4.339,2.291 -7.873,5.313 -10.603,9.067c-2.73,3.754 -4.753,8.019 -6.069,12.796c-1.316,4.778 -1.974,9.652 -1.974,14.625c-0,5.362 0.658,10.456 1.974,15.282c1.316,4.826 3.339,9.067 6.069,12.723c2.73,3.657 6.264,6.533 10.603,8.629c4.338,2.096 9.481,3.144 15.429,3.144c9.554,0 16.939,-2.34 22.156,-7.02c5.216,-4.679 8.799,-11.309 10.748,-19.889l-9.213,0c-1.462,5.85 -4.095,10.53 -7.897,14.04c-3.802,3.509 -9.067,5.264 -15.794,5.264c-4.388,0 -8.141,-0.926 -11.261,-2.778c-3.12,-1.853 -5.704,-4.193 -7.751,-7.02c-2.048,-2.827 -3.534,-6.02 -4.461,-9.579c-0.926,-3.559 -1.389,-6.995 -1.389,-10.31Z" style="fill:#fff;fill-rule:nonzero;"/><path d="M316.326,846.997l9.213,0c-1.072,-8.677 -4.411,-15.16 -10.017,-19.45c-5.606,-4.29 -12.455,-6.435 -20.548,-6.435c-5.752,0 -10.846,1.073 -15.282,3.217c-4.436,2.145 -8.165,5.021 -11.188,8.629c-3.022,3.607 -5.313,7.824 -6.873,12.65c-1.56,4.826 -2.34,9.969 -2.34,15.429c-0,5.459 0.78,10.602 2.34,15.428c1.56,4.827 3.851,9.043 6.873,12.651c3.023,3.607 6.752,6.459 11.188,8.555c4.436,2.096 9.53,3.144 15.282,3.144c8.58,0 15.6,-2.559 21.06,-7.678c5.459,-5.118 8.823,-12.26 10.09,-21.424l-9.213,-0c-0.292,3.119 -1.072,5.996 -2.34,8.628c-1.267,2.632 -2.876,4.899 -4.826,6.8c-1.95,1.901 -4.192,3.388 -6.727,4.461c-2.535,1.072 -5.216,1.608 -8.044,1.608c-4.387,0 -8.238,-0.926 -11.553,-2.778c-3.315,-1.853 -6.069,-4.29 -8.263,-7.312c-2.193,-3.023 -3.851,-6.46 -4.972,-10.311c-1.121,-3.851 -1.682,-7.775 -1.682,-11.772c0,-3.998 0.561,-7.922 1.682,-11.773c1.121,-3.851 2.779,-7.288 4.972,-10.31c2.194,-3.023 4.948,-5.46 8.263,-7.312c3.315,-1.853 7.166,-2.779 11.553,-2.779c6.143,-0 10.92,1.609 14.332,4.826c3.413,3.217 5.753,7.653 7.02,13.308Z" style="fill:#fff;fill-rule:nonzero;"/><path d="M363.709,794.349l0,104.419l9.214,-0l-0,-44.02c0.097,-3.705 0.706,-7.141 1.828,-10.31c1.121,-3.169 2.681,-5.899 4.679,-8.19c1.999,-2.291 4.436,-4.095 7.313,-5.411c2.876,-1.316 6.166,-1.974 9.871,-1.974c3.705,-0 6.8,0.585 9.287,1.755c2.486,1.17 4.46,2.779 5.922,4.826c1.463,2.047 2.487,4.46 3.072,7.239c0.585,2.779 0.877,5.777 0.877,8.994l0,47.091l9.213,-0l0,-48.553c0,-4.485 -0.438,-8.531 -1.316,-12.139c-0.877,-3.607 -2.388,-6.654 -4.533,-9.14c-2.145,-2.486 -4.997,-4.412 -8.556,-5.777c-3.558,-1.364 -7.97,-2.047 -13.235,-2.047c-5.362,0 -10.286,1.389 -14.77,4.168c-4.485,2.779 -7.605,6.459 -9.36,11.041l-0.292,0l-0,-41.972l-9.214,0Z" style="fill:#fff;fill-rule:nonzero;"/><path d="M539.202,864.4l-9.944,0c-0.293,6.435 0.56,11.944 2.559,16.526c1.998,4.582 4.85,8.336 8.555,11.261c3.705,2.925 8.19,5.094 13.455,6.508c5.264,1.413 10.968,2.12 17.11,2.12c6.142,0 11.407,-0.561 15.794,-1.682c4.388,-1.121 8.068,-2.583 11.042,-4.387c2.974,-1.804 5.313,-3.827 7.02,-6.069c1.706,-2.243 3.022,-4.461 3.948,-6.654c0.926,-2.194 1.511,-4.266 1.755,-6.216c0.244,-1.95 0.366,-3.51 0.366,-4.679c-0,-4.29 -0.707,-7.946 -2.121,-10.969c-1.413,-3.022 -3.363,-5.581 -5.85,-7.678c-2.486,-2.096 -5.362,-3.851 -8.628,-5.264c-3.266,-1.414 -6.752,-2.608 -10.456,-3.583l-25.447,-6.289c-2.145,-0.487 -4.168,-1.121 -6.069,-1.901c-1.901,-0.78 -3.583,-1.804 -5.045,-3.071c-1.463,-1.268 -2.608,-2.803 -3.437,-4.607c-0.829,-1.804 -1.243,-3.924 -1.243,-6.361c-0,-3.9 0.731,-7.166 2.193,-9.799c1.463,-2.632 3.388,-4.753 5.777,-6.361c2.389,-1.609 5.167,-2.779 8.336,-3.51c3.169,-0.732 6.459,-1.097 9.871,-1.097c3.705,-0 7.24,0.512 10.603,1.535c3.364,1.024 6.337,2.535 8.921,4.534c2.584,1.999 4.68,4.485 6.289,7.458c1.608,2.974 2.51,6.46 2.705,10.457l9.945,-0c-0,-5.362 -1.048,-10.067 -3.145,-14.113c-2.096,-4.046 -4.899,-7.434 -8.409,-10.164c-3.51,-2.73 -7.604,-4.777 -12.284,-6.142c-4.68,-1.365 -9.604,-2.047 -14.771,-2.047c-7.312,-0 -13.308,1.048 -17.988,3.144c-4.68,2.096 -8.36,4.655 -11.041,7.678c-2.681,3.022 -4.509,6.24 -5.484,9.652c-0.975,3.412 -1.463,6.386 -1.463,8.921c0,4.095 0.658,7.556 1.974,10.383c1.317,2.828 3.047,5.216 5.192,7.166c2.145,1.95 4.656,3.51 7.532,4.68c2.876,1.17 5.825,2.145 8.847,2.925l23.253,5.703c2.438,0.585 4.924,1.341 7.459,2.267c2.535,0.926 4.85,2.121 6.946,3.583c2.096,1.463 3.803,3.266 5.119,5.411c1.316,2.145 1.974,4.68 1.974,7.605c0,3.802 -0.926,7.044 -2.779,9.725c-1.852,2.681 -4.167,4.875 -6.946,6.581c-2.779,1.706 -5.777,2.949 -8.994,3.729c-3.217,0.78 -6.191,1.17 -8.921,1.17c-4.777,0 -9.262,-0.463 -13.454,-1.389c-4.193,-0.926 -7.825,-2.462 -10.896,-4.607c-3.071,-2.145 -5.484,-5.021 -7.239,-8.628c-1.755,-3.608 -2.583,-8.092 -2.486,-13.455Z" style="fill:#fff;fill-rule:nonzero;"/><path d="M681.644,828.863c4.387,-0 8.238,0.926 11.553,2.779c3.315,1.852 6.069,4.289 8.263,7.312c2.194,3.022 3.851,6.459 4.972,10.31c1.121,3.851 1.682,7.775 1.682,11.773c0,3.997 -0.561,7.921 -1.682,11.772c-1.121,3.851 -2.778,7.288 -4.972,10.311c-2.194,3.022 -4.948,5.459 -8.263,7.312c-3.315,1.852 -7.166,2.778 -11.553,2.778c-4.387,0 -8.239,-0.926 -11.553,-2.778c-3.315,-1.853 -6.07,-4.29 -8.263,-7.312c-2.194,-3.023 -3.851,-6.46 -4.972,-10.311c-1.122,-3.851 -1.682,-7.775 -1.682,-11.772c-0,-3.998 0.56,-7.922 1.682,-11.773c1.121,-3.851 2.778,-7.288 4.972,-10.31c2.193,-3.023 4.948,-5.46 8.263,-7.312c3.314,-1.853 7.166,-2.779 11.553,-2.779Zm-0,-7.751c-5.752,0 -10.847,1.073 -15.283,3.217c-4.436,2.145 -8.165,5.021 -11.187,8.629c-3.023,3.607 -5.314,7.824 -6.874,12.65c-1.56,4.826 -2.34,9.969 -2.34,15.429c0,5.459 0.78,10.602 2.34,15.428c1.56,4.827 3.851,9.043 6.874,12.651c3.022,3.607 6.751,6.459 11.187,8.555c4.436,2.096 9.531,3.144 15.283,3.144c5.752,0 10.846,-1.048 15.282,-3.144c4.436,-2.096 8.166,-4.948 11.188,-8.555c3.022,-3.608 5.314,-7.824 6.874,-12.651c1.559,-4.826 2.339,-9.969 2.339,-15.428c0,-5.46 -0.78,-10.603 -2.339,-15.429c-1.56,-4.826 -3.852,-9.043 -6.874,-12.65c-3.022,-3.608 -6.752,-6.484 -11.188,-8.629c-4.436,-2.144 -9.53,-3.217 -15.282,-3.217Z" style="fill:#fff;fill-rule:nonzero;"/><rect x="756.082" y="794.349" width="9.213" height="104.418" style="fill:#fff;fill-rule:nonzero;"/><path d="M868.983,898.768l-0,-75.462l-9.214,-0l0,39.632c0,3.802 -0.438,7.531 -1.316,11.188c-0.877,3.656 -2.242,6.897 -4.095,9.725c-1.852,2.827 -4.192,5.094 -7.02,6.8c-2.827,1.706 -6.239,2.559 -10.237,2.559c-7.312,0 -12.455,-1.755 -15.428,-5.264c-2.974,-3.51 -4.558,-8.678 -4.753,-15.502l-0,-49.138l-9.214,-0l0,48.991c0,4.485 0.488,8.483 1.463,11.993c0.975,3.509 2.51,6.483 4.606,8.92c2.097,2.438 4.827,4.315 8.19,5.631c3.364,1.316 7.434,1.974 12.212,1.974c5.654,0 10.797,-1.34 15.428,-4.022c4.631,-2.681 8.166,-6.556 10.603,-11.626l0.292,-0l0,13.601l8.483,-0Z" style="fill:#fff;fill-rule:nonzero;"/><path d="M925.872,823.306l-0,-22.668l-9.214,-0l0,22.668l-13.162,-0l0,7.751l13.162,-0l0,51.624c-0.097,6.435 1.073,10.846 3.51,13.235c2.437,2.389 6.727,3.583 12.87,3.583c1.365,-0 2.729,-0.049 4.094,-0.146c1.365,-0.098 2.73,-0.147 4.095,-0.147l0,-7.751c-2.632,0.293 -5.265,0.439 -7.897,0.439c-3.315,-0.195 -5.387,-1.145 -6.215,-2.852c-0.829,-1.706 -1.243,-4.07 -1.243,-7.092l-0,-50.893l15.355,-0l0,-7.751l-15.355,-0Z" style="fill:#fff;fill-rule:nonzero;"/><path d="M979.543,794.349l0,14.771l9.214,0l-0,-14.771l-9.214,0Zm0,28.957l0,75.462l9.214,-0l-0,-75.462l-9.214,-0Z" style="fill:#fff;fill-rule:nonzero;"/><path d="M1063.19,828.863c4.387,-0 8.238,0.926 11.553,2.779c3.315,1.852 6.069,4.289 8.263,7.312c2.194,3.022 3.851,6.459 4.972,10.31c1.121,3.851 1.682,7.775 1.682,11.773c0,3.997 -0.561,7.921 -1.682,11.772c-1.121,3.851 -2.778,7.288 -4.972,10.311c-2.194,3.022 -4.948,5.459 -8.263,7.312c-3.315,1.852 -7.166,2.778 -11.553,2.778c-4.387,0 -8.239,-0.926 -11.553,-2.778c-3.315,-1.853 -6.07,-4.29 -8.263,-7.312c-2.194,-3.023 -3.851,-6.46 -4.973,-10.311c-1.121,-3.851 -1.681,-7.775 -1.681,-11.772c-0,-3.998 0.56,-7.922 1.681,-11.773c1.122,-3.851 2.779,-7.288 4.973,-10.31c2.193,-3.023 4.948,-5.46 8.263,-7.312c3.314,-1.853 7.166,-2.779 11.553,-2.779Zm-0,-7.751c-5.752,0 -10.847,1.073 -15.283,3.217c-4.436,2.145 -8.165,5.021 -11.187,8.629c-3.023,3.607 -5.314,7.824 -6.874,12.65c-1.56,4.826 -2.34,9.969 -2.34,15.429c0,5.459 0.78,10.602 2.34,15.428c1.56,4.827 3.851,9.043 6.874,12.651c3.022,3.607 6.751,6.459 11.187,8.555c4.436,2.096 9.531,3.144 15.283,3.144c5.752,0 10.846,-1.048 15.282,-3.144c4.436,-2.096 8.166,-4.948 11.188,-8.555c3.022,-3.608 5.314,-7.824 6.873,-12.651c1.56,-4.826 2.34,-9.969 2.34,-15.428c0,-5.46 -0.78,-10.603 -2.34,-15.429c-1.559,-4.826 -3.851,-9.043 -6.873,-12.65c-3.022,-3.608 -6.752,-6.484 -11.188,-8.629c-4.436,-2.144 -9.53,-3.217 -15.282,-3.217Z" style="fill:#fff;fill-rule:nonzero;"/><path d="M1137.34,823.306l-0,75.462l9.213,-0l-0,-44.02c0.097,-3.705 0.707,-7.141 1.828,-10.31c1.121,-3.169 2.681,-5.899 4.68,-8.19c1.999,-2.291 4.436,-4.095 7.312,-5.411c2.876,-1.316 6.167,-1.974 9.872,-1.974c3.704,-0 6.8,0.585 9.286,1.755c2.486,1.17 4.46,2.779 5.923,4.826c1.462,2.047 2.486,4.46 3.071,7.239c0.585,2.779 0.878,5.777 0.878,8.994l-0,47.091l9.213,-0l-0,-48.553c-0,-4.485 -0.439,-8.531 -1.316,-12.139c-0.878,-3.607 -2.389,-6.654 -4.534,-9.14c-2.145,-2.486 -4.997,-4.412 -8.555,-5.777c-3.559,-1.364 -7.97,-2.047 -13.235,-2.047c-5.363,0 -10.286,1.389 -14.771,4.168c-4.485,2.779 -7.605,6.459 -9.36,11.041l-0.292,0l-0,-13.015l-9.213,-0Z" style="fill:#fff;fill-rule:nonzero;"/><path d="M1286.07,845.389l9.213,-0c-0.195,-4.095 -1.023,-7.654 -2.486,-10.676c-1.462,-3.023 -3.437,-5.558 -5.923,-7.605c-2.486,-2.047 -5.362,-3.559 -8.628,-4.534c-3.266,-0.974 -6.801,-1.462 -10.603,-1.462c-3.315,0 -6.654,0.39 -10.018,1.17c-3.363,0.78 -6.41,1.999 -9.14,3.656c-2.73,1.658 -4.948,3.851 -6.654,6.581c-1.706,2.73 -2.559,5.996 -2.559,9.798c-0,3.218 0.536,5.923 1.608,8.117c1.073,2.194 2.56,4.046 4.461,5.557c1.901,1.511 4.119,2.779 6.654,3.803c2.535,1.023 5.314,1.925 8.336,2.705l11.846,2.633c2.047,0.487 4.07,1.072 6.069,1.754c1.999,0.683 3.778,1.536 5.338,2.56c1.56,1.023 2.803,2.291 3.729,3.802c0.926,1.511 1.389,3.388 1.389,5.63c0,2.633 -0.658,4.851 -1.974,6.655c-1.316,1.803 -2.998,3.29 -5.045,4.46c-2.048,1.17 -4.266,1.999 -6.655,2.486c-2.388,0.488 -4.704,0.731 -6.946,0.731c-6.142,0 -11.285,-1.584 -15.429,-4.753c-4.143,-3.168 -6.41,-7.872 -6.8,-14.112l-9.214,-0c0.78,9.262 3.925,15.989 9.433,20.182c5.509,4.192 12.699,6.288 21.571,6.288c3.51,0 7.069,-0.39 10.676,-1.17c3.607,-0.78 6.849,-2.072 9.725,-3.875c2.876,-1.804 5.241,-4.144 7.093,-7.02c1.852,-2.876 2.779,-6.362 2.779,-10.456c-0,-3.315 -0.634,-6.191 -1.902,-8.629c-1.267,-2.437 -2.9,-4.485 -4.899,-6.142c-1.998,-1.658 -4.29,-2.998 -6.873,-4.022c-2.584,-1.024 -5.192,-1.73 -7.824,-2.12l-12.285,-2.779c-1.56,-0.39 -3.266,-0.902 -5.118,-1.536c-1.853,-0.633 -3.559,-1.438 -5.119,-2.413c-1.56,-0.975 -2.852,-2.169 -3.875,-3.583c-1.024,-1.413 -1.536,-3.144 -1.536,-5.191c0,-2.438 0.536,-4.485 1.609,-6.143c1.072,-1.657 2.486,-2.998 4.241,-4.021c1.755,-1.024 3.68,-1.755 5.777,-2.194c2.096,-0.439 4.168,-0.658 6.215,-0.658c2.632,-0 5.118,0.317 7.458,0.951c2.34,0.633 4.412,1.633 6.216,2.998c1.803,1.365 3.242,3.095 4.314,5.191c1.072,2.096 1.657,4.558 1.755,7.386Z" style="fill:#fff;fill-rule:nonzero;"/></g><path id="shield" d="M667.979,0c-0,0 82.782,48.379 192.568,70.699c-0,-0 4.084,101.286 -36.009,192.725c-26.33,60.051 -81.298,113.243 -156.559,161.03c-75.262,-47.787 -130.23,-100.979 -156.56,-161.03c-40.092,-91.439 -36.009,-192.725 -36.009,-192.725c109.786,-22.32 192.569,-70.699 192.569,-70.699Z" style="fill:url(#_Linear1);"/><path id="Diamond" d="M790.402,450.919c-9.619,-75.391 -70.262,-144.896 -70.262,-144.896c47.053,-55.995 70.262,-123.347 70.262,-123.347c-0,0 23.209,67.352 70.262,123.347c-0,-0 -60.644,69.505 -70.262,144.896Z" style="fill:#fff;stroke:#181818;stroke-width:8.68px;"/><path id="Diamond1" serif:id="Diamond" d="M690.69,241.379c-4.031,-31.6 -29.449,-60.732 -29.449,-60.732c19.721,-23.469 29.449,-51.699 29.449,-51.699c0,0 9.728,28.23 29.45,51.699c-0,0 -25.418,29.132 -29.45,60.732Z" style="fill:#fff;stroke:#181818;stroke-width:6.51px;"/></g><defs><linearGradient id="_Linear1" x1="0" y1="0" x2="1" y2="0" gradientUnits="userSpaceOnUse" gradientTransform="matrix(357.395,248.569,-248.569,357.395,475.293,68.7449)"><stop offset="0" style="stop-color:#c575f2;stop-opacity:1"/><stop offset="1" style="stop-color:#9300f1;stop-opacity:1"/></linearGradient></defs></svg>