<?xml version="1.0" encoding="UTF-8" standalone="no"?>
<!DOCTYPE svg PUBLIC "-//W3C//DTD SVG 1.1//EN" "http://www.w3.org/Graphics/SVG/1.1/DTD/svg11.dtd">
<svg width="100%" height="100%" viewBox="0 0 877 226" version="1.1" xmlns="http://www.w3.org/2000/svg" xmlns:xlink="http://www.w3.org/1999/xlink" xml:space="preserve" xmlns:serif="http://www.serif.com/" style="fill-rule:evenodd;clip-rule:evenodd;stroke-linejoin:round;stroke-miterlimit:2;">
    <g transform="matrix(1,0,0,1,-296.662,-3913.69)">
        <g transform="matrix(1.36347,0,0,2.03015,0,2443.67)">
            <g transform="matrix(1.55998,0,0,1.0477,-165.954,230.988)">
                <path d="M383.814,557.596L394.22,557.596L394.22,498.486L412.924,498.486L412.924,489.252L365.111,489.252L365.111,498.486L383.814,498.486L383.814,557.596Z" style="fill:white;fill-rule:nonzero;"/>
                <path d="M442.67,536.971L442.67,528.908C442.608,522.502 440.624,517.471 436.717,513.814C432.874,510.221 428.17,508.393 422.608,508.33C420.295,508.33 417.952,508.752 415.577,509.596C413.17,510.439 410.999,511.814 409.061,513.721C407.155,515.596 405.592,518.158 404.374,521.408C403.155,524.596 402.545,528.596 402.545,533.408C402.545,538.408 403.249,542.471 404.655,545.596C405.936,548.846 407.608,551.377 409.67,553.189C410.733,554.064 411.874,554.799 413.092,555.393C414.249,556.08 415.436,556.627 416.655,557.033C419.092,557.783 421.592,558.158 424.155,558.158C430.874,558.221 436.717,555.596 441.686,550.283L434.608,544.236C431.483,547.393 427.936,548.971 423.967,548.971C420.561,548.971 417.811,547.939 415.717,545.877C413.467,543.846 412.342,540.877 412.342,536.971L442.67,536.971ZM412.342,528.908C412.53,525.127 413.545,522.268 415.389,520.33C417.264,518.486 419.67,517.564 422.608,517.564C425.545,517.564 427.952,518.486 429.827,520.33C431.733,522.268 432.749,525.127 432.874,528.908L412.342,528.908Z" style="fill:white;fill-rule:nonzero;"/>
                <path d="M448.136,557.596L457.933,557.596L457.933,528.299C457.995,524.736 459.027,522.158 461.027,520.564C462.808,518.939 464.949,518.127 467.449,518.127C469.667,518.127 471.808,518.939 473.87,520.564L480.995,512.08C478.089,509.643 474.683,508.393 470.777,508.33C465.558,508.33 461.339,510.252 458.12,514.096L457.933,514.096L457.933,508.939L448.136,508.939L448.136,557.596Z" style="fill:white;fill-rule:nonzero;"/>
                <path d="M481.258,557.596L491.055,557.596L491.055,528.627C491.055,525.221 491.992,522.627 493.867,520.846C495.649,519.033 497.945,518.127 500.758,518.127C503.57,518.127 505.883,519.033 507.695,520.846C509.477,522.627 510.367,525.221 510.367,528.627L510.367,557.596L520.164,557.596L520.164,528.627C520.164,525.221 521.086,522.627 522.93,520.846C524.742,519.033 527.055,518.127 529.867,518.127C532.68,518.127 534.977,519.033 536.758,520.846C538.539,522.627 539.43,525.221 539.43,528.627L539.43,557.596L549.227,557.596L549.227,525.252C549.102,519.689 547.383,515.471 544.07,512.596C540.727,509.752 537.039,508.33 533.008,508.33C526.602,508.268 521.492,510.393 517.68,514.705C515.992,512.83 514.133,511.283 512.102,510.064C510.039,508.971 507.32,508.393 503.945,508.33C498.695,508.33 494.461,510.252 491.242,514.096L491.055,514.096L491.055,508.939L481.258,508.939L481.258,557.596Z" style="fill:white;fill-rule:nonzero;"/>
                <path d="M557.974,557.596L567.77,557.596L567.77,508.939L557.974,508.939L557.974,557.596ZM557.974,499.049L567.77,499.049L567.77,489.252L557.974,489.252L557.974,499.049Z" style="fill:white;fill-rule:nonzero;"/>
                <path d="M575.908,557.596L585.705,557.596L585.705,528.627C585.705,525.221 586.627,522.627 588.47,520.846C590.283,519.033 592.595,518.127 595.408,518.127C598.22,518.127 600.517,519.033 602.299,520.846C604.111,522.627 605.017,525.221 605.017,528.627L605.017,557.596L614.814,557.596L614.814,525.252C614.658,519.689 612.924,515.471 609.611,512.596C606.267,509.752 602.58,508.33 598.549,508.33C593.33,508.33 589.111,510.252 585.892,514.096L585.705,514.096L585.705,508.939L575.908,508.939L575.908,557.596Z" style="fill:white;fill-rule:nonzero;"/>
                <path d="M648.217,557.596L658.014,557.596L658.014,524.361C657.952,518.424 656.092,514.236 652.436,511.799C648.78,509.424 643.889,508.268 637.764,508.33C630.514,508.205 625.03,510.58 621.311,515.455L628.999,521.314C629.842,519.908 630.999,518.908 632.467,518.314C633.874,517.814 635.795,517.564 638.233,517.564C644.952,517.439 648.28,519.518 648.217,523.799L648.217,528.908L634.67,528.908C629.483,528.971 625.545,530.377 622.858,533.127C620.17,535.814 618.827,539.205 618.827,543.299C618.827,547.58 620.374,551.096 623.467,553.846C626.405,556.658 630.592,558.096 636.03,558.158C639.342,558.158 641.936,557.752 643.811,556.939C645.717,556.158 647.124,554.939 648.03,553.283L648.217,553.283L648.217,557.596ZM648.217,540.486C648.217,544.143 647.452,546.486 645.92,547.518C644.233,548.549 641.342,549.033 637.249,548.971C633.999,548.971 631.67,548.33 630.264,547.049C628.795,545.893 628.061,544.486 628.061,542.83C627.999,539.049 630.811,537.096 636.499,536.971L648.217,536.971L648.217,540.486Z" style="fill:white;fill-rule:nonzero;"/>
            </g>
        </g>
        <g transform="matrix(1.36347,0,0,2.03015,0,2443.67)">
            <g transform="matrix(0.733424,0,0,0.492575,-104.287,612.817)">
                <g id="shield" transform="matrix(0.364392,0,0,0.364392,377.038,107.307)">
                    <path d="M561.338,839.965C527.654,871.054 488.118,900.662 443.583,928.939C336.583,861 258.434,785.377 221,700C164,570 169.806,426 169.806,426C325.89,394.267 443.583,325.487 443.583,325.487C443.583,325.487 561.276,394.267 717.36,426C717.36,426 722.626,556.594 673.899,681.325C642.346,627.419 626.715,582.071 626.715,582.071C625.38,578.196 621.733,575.595 617.634,575.595C613.535,575.595 609.888,578.196 608.553,582.071C608.553,582.071 576.122,676.159 510.388,754.385C507.342,758.009 507.391,763.312 510.504,766.879C510.504,766.879 536.118,796.163 561.338,839.965ZM664.706,703.279C645.041,746.789 614.778,787.757 575.504,826.461C557.056,795.021 538.86,771.282 530.204,760.553C574.947,705.392 603.994,644.064 617.634,611.545C626.616,632.96 642.28,666.867 664.706,703.279ZM467.706,669.701C468.23,673.811 471.728,676.891 475.872,676.891C480.016,676.891 483.515,673.811 484.039,669.701C489.485,627.017 523.945,587.728 523.945,587.728C526.612,584.671 526.655,580.125 524.044,577.019C497.001,544.837 483.656,506.132 483.656,506.132C482.512,502.81 479.385,500.581 475.872,500.581C472.359,500.581 469.233,502.81 468.089,506.132C468.089,506.132 454.743,544.837 427.701,577.019C425.09,580.125 425.132,584.671 427.8,587.728C427.8,587.728 462.26,627.017 467.706,669.701ZM475.872,636.604C466.389,612.127 451.823,591.661 444.592,582.329C459.045,563.897 469.452,544.21 475.872,530.281C482.292,544.209 492.7,563.897 507.152,582.33C499.922,591.662 485.355,612.127 475.872,636.604Z" style="fill:url(#_Linear1);"/>
                </g>
                <g id="Diamond" transform="matrix(2.03813,0,0,2.03813,431.265,-875.413)">
                    <path d="M84.204,648.663C84.172,648.85 84.009,648.988 83.819,648.988C83.628,648.988 83.465,648.85 83.433,648.662C80.623,633.914 69.897,620.711 68.221,618.718C68.093,618.57 68.091,618.351 68.217,618.2C77.068,607.564 82.12,595.203 83.457,591.674C83.512,591.522 83.656,591.42 83.819,591.42C83.981,591.42 84.125,591.522 84.18,591.674C85.518,595.204 90.572,607.57 99.428,618.208C99.549,618.354 99.547,618.566 99.423,618.71C97.77,620.674 87.018,633.894 84.204,648.663Z" style="fill:white;"/>
                </g>
                <g id="Diamond1" serif:id="Diamond" transform="matrix(0.74476,0,0,0.74476,488.017,-140.572)">
                    <path d="M84.794,646.019C84.694,646.477 84.288,646.804 83.819,646.804C83.35,646.804 82.944,646.477 82.845,646.019C79.565,633.152 70.878,621.953 68.57,619.138C68.24,618.75 68.236,618.181 68.56,617.787C76.193,608.471 80.938,597.948 82.85,593.223C83.003,592.82 83.388,592.554 83.818,592.555C84.249,592.555 84.634,592.821 84.787,593.223C86.699,597.948 91.444,608.471 99.079,617.786C99.403,618.18 99.398,618.75 99.068,619.139C96.759,621.953 88.072,633.152 84.794,646.019Z" style="fill:white;"/>
                </g>
            </g>
        </g>
    </g>
    <defs>
        <linearGradient id="_Linear1" x1="0" y1="0" x2="1" y2="0" gradientUnits="userSpaceOnUse" gradientTransform="matrix(508.114,353.394,-353.394,508.114,169.64,423.222)"><stop offset="0" style="stop-color:rgb(197,117,242);stop-opacity:1"/><stop offset="1" style="stop-color:rgb(147,0,241);stop-opacity:1"/></linearGradient>
    </defs>
</svg>
